<?xml version="1.0" encoding="UTF-8" standalone="no"?>
<!DOCTYPE svg PUBLIC "-//W3C//DTD SVG 1.1//EN" "http://www.w3.org/Graphics/SVG/1.1/DTD/svg11.dtd">
<svg width="100%" height="100%" viewBox="0 0 489 489" version="1.1" xmlns="http://www.w3.org/2000/svg" xmlns:xlink="http://www.w3.org/1999/xlink" xml:space="preserve" style="fill-rule:evenodd;clip-rule:evenodd;stroke-linejoin:round;stroke-miterlimit:1.41421;">
    <g>
        <circle id="XMLID_1909_" cx="244.3" cy="444.2" r="35.3" style="fill:rgb(147,13,242);"/>
        <circle id="XMLID_1907_" cx="244.3" cy="44.4" r="35.3" style="fill:rgb(26,122,230);"/>
        <circle id="XMLID_1905_" cx="444.2" cy="244.3" r="35.3" style="fill:rgb(51,204,69);"/>
        <circle id="XMLID_1903_" cx="44.4" cy="244.3" r="35.3" style="fill:rgb(217,38,38);"/>
        <g id="XMLID_1903_1" transform="matrix(1,0,0,1,58.4035,-141.02)">
            <circle cx="44.4" cy="244.3" r="35.3" style="fill:rgb(242,94,13);"/>
        </g>
        <g id="XMLID_1903_2" transform="matrix(1,0,0,1,341.091,-141.364)">
            <circle cx="44.4" cy="244.3" r="35.3" style="fill:rgb(179,77,149);"/>
        </g>
        <g id="XMLID_1903_3" transform="matrix(1,0,0,1,341.37,141.408)">
            <circle cx="44.4" cy="244.3" r="35.3" style="fill:rgb(26,194,230);"/>
        </g>
        <g id="XMLID_1903_4" transform="matrix(1,0,0,1,60.3258,142.166)">
            <circle cx="44.4" cy="244.3" r="35.3" style="fill:rgb(242,13,175);"/>
        </g>
        <path d="M244.3,346.8C239.3,346.8 235.2,350.9 235.2,355.9L235.2,400.7C215.1,404.9 199.9,422.8 199.9,444.2C199.9,468.7 219.8,488.6 244.3,488.6C268.8,488.6 288.7,468.7 288.7,444.2C288.7,422.8 273.5,404.9 253.4,400.7L253.4,355.9C253.4,350.9 249.3,346.8 244.3,346.8ZM270.6,444.2C270.6,458.7 258.8,470.5 244.3,470.5C229.8,470.5 218,458.7 218,444.2C218,429.7 229.8,417.9 244.3,417.9C258.8,417.9 270.6,429.7 270.6,444.2Z" style="fill:white;fill-rule:nonzero;"/>
        <path d="M348.5,361.3C343.8,368.5 341.2,376.8 341.2,385.6C341.2,397.5 345.8,408.6 354.2,417C362.6,425.4 373.7,430 385.6,430C397.5,430 408.6,425.4 417,417C425.4,408.6 430,397.5 430,385.6C430,373.7 425.4,362.6 417,354.2C408.6,345.8 397.5,341.2 385.6,341.2C376.8,341.2 368.4,343.7 361.3,348.5L329.6,316.8C326.1,313.3 320.3,313.3 316.8,316.8C313.3,320.3 313.3,326.1 316.8,329.6L348.5,361.3ZM404.2,367.1C414.4,377.3 414.4,394 404.2,404.3C399.2,409.3 392.6,412 385.6,412C378.6,412 372,409.3 367,404.3C356.8,394.1 356.8,377.4 367,367.2C372,362.2 378.6,359.5 385.6,359.5C392.7,359.4 399.3,362.1 404.2,367.1Z" style="fill:white;fill-rule:nonzero;"/>
        <path d="M316.8,171.8C318.6,173.6 320.9,174.5 323.2,174.5C325.5,174.5 327.8,173.6 329.6,171.8L361.3,140.1C368.5,144.8 376.8,147.4 385.6,147.4C397.5,147.4 408.6,142.8 417,134.4C425.4,126 430,114.9 430,103C430,91.1 425.4,80 417,71.6C408.6,63.2 397.5,58.6 385.6,58.6C373.7,58.6 362.6,63.2 354.2,71.6C345.8,80 341.2,91.1 341.2,103C341.2,111.8 343.7,120.2 348.5,127.3L316.8,159C313.3,162.5 313.3,168.3 316.8,171.8ZM367.1,84.4C372.1,79.4 378.7,76.7 385.7,76.7C392.7,76.7 399.3,79.4 404.3,84.4C414.5,94.6 414.5,111.3 404.3,121.6C399.3,126.6 392.7,129.3 385.7,129.3C378.7,129.3 372.1,126.6 367.1,121.6C356.8,111.3 356.8,94.6 367.1,84.4Z" style="fill:white;fill-rule:nonzero;"/>
        <path d="M171.8,316.8C168.3,313.3 162.5,313.3 159,316.8L127.3,348.5C120.1,343.8 111.8,341.2 103,341.2C91.1,341.2 80,345.8 71.6,354.2C63.2,362.6 58.6,373.7 58.6,385.6C58.6,397.5 63.2,408.6 71.6,417C80,425.4 91.1,430 103,430C114.9,430 126,425.4 134.4,417C142.8,408.6 147.4,397.5 147.4,385.6C147.4,376.8 144.9,368.4 140.1,361.3L171.8,329.6C175.3,326.1 175.3,320.3 171.8,316.8ZM121.5,404.2C116.5,409.2 109.9,411.9 102.9,411.9C95.9,411.9 89.3,409.2 84.3,404.2C74.1,394 74.1,377.3 84.3,367C89.3,362 95.9,359.3 102.9,359.3C109.9,359.3 116.5,362 121.5,367C131.8,377.3 131.8,394 121.5,404.2Z" style="fill:white;fill-rule:nonzero;"/>
        <path d="M199.9,44.4C199.9,65.8 215.1,83.7 235.2,87.9L235.2,132.7C235.2,137.7 239.3,141.8 244.3,141.8C249.3,141.8 253.4,137.7 253.4,132.7L253.4,87.9C273.5,83.7 288.7,65.8 288.7,44.4C288.7,19.9 268.8,0 244.3,0C219.8,0 199.9,19.9 199.9,44.4ZM270.6,44.4C270.6,58.9 258.8,70.7 244.3,70.7C229.8,70.7 218,58.9 218,44.4C218,29.9 229.8,18.1 244.3,18.1C258.8,18.1 270.6,29.9 270.6,44.4Z" style="fill:white;fill-rule:nonzero;"/>
        <path d="M400.7,235.2L355.9,235.2C350.9,235.2 346.8,239.3 346.8,244.3C346.8,249.3 350.9,253.4 355.9,253.4L400.7,253.4C404.9,273.5 422.8,288.7 444.2,288.7C468.7,288.7 488.6,268.8 488.6,244.3C488.6,219.8 468.7,199.9 444.2,199.9C422.8,199.9 404.9,215.1 400.7,235.2ZM470.5,244.3C470.5,258.8 458.7,270.6 444.2,270.6C429.7,270.6 417.9,258.8 417.9,244.3C417.9,229.8 429.7,218 444.2,218C458.7,218 470.5,229.8 470.5,244.3Z" style="fill:white;fill-rule:nonzero;"/>
        <path d="M44.4,288.7C65.8,288.7 83.7,273.5 87.9,253.4L132.7,253.4C137.7,253.4 141.8,249.3 141.8,244.3C141.8,239.3 137.7,235.2 132.7,235.2L87.9,235.2C83.7,215.1 65.8,199.9 44.4,199.9C19.9,199.9 0,219.8 0,244.3C0,268.8 19.9,288.7 44.4,288.7ZM44.4,218C58.9,218 70.7,229.8 70.7,244.3C70.7,258.8 58.9,270.6 44.4,270.6C29.9,270.6 18.1,258.8 18.1,244.3C18.1,229.8 29.9,218 44.4,218Z" style="fill:white;fill-rule:nonzero;"/>
        <path d="M134.3,71.5C125.9,63.1 114.8,58.5 102.9,58.5C91,58.5 79.9,63.1 71.5,71.5C63.1,79.9 58.5,91 58.5,102.9C58.5,114.8 63.1,125.9 71.5,134.3C79.9,142.7 91,147.3 102.9,147.3C111.7,147.3 120.1,144.8 127.2,140L158.9,171.7C160.7,173.5 163,174.4 165.3,174.4C167.6,174.4 169.9,173.5 171.7,171.7C175.2,168.2 175.2,162.4 171.7,158.9L140.1,127.3C144.8,120.1 147.4,111.8 147.4,103C147.3,91.1 142.7,79.9 134.3,71.5ZM84.4,121.5C74.2,111.3 74.2,94.6 84.4,84.3C89.4,79.3 96,76.6 103,76.6C110,76.6 116.6,79.3 121.6,84.3C131.8,94.5 131.8,111.2 121.6,121.4C116.6,126.4 110,129.1 103,129.1C95.9,129.2 89.3,126.5 84.4,121.5Z" style="fill:white;fill-rule:nonzero;"/>
        <g transform="matrix(1,0,0,1,240.773,40.425)">
            <circle cx="5.461" cy="203.446" r="75.537" style="fill:white;"/>
        </g>
    </g>
</svg>
